<?xml version="1.0" encoding="UTF-8"?>
<svg width="100pt" height="100pt" version="1.1" viewBox="0 0 100 100" xmlns="http://www.w3.org/2000/svg">
 <path d="m95.461 5.1914c2.3672 2.6523 3.5781 6.1406 3.3633 9.6875-0.21484 3.5508-1.8398 6.8672-4.5156 9.2109l-17.699 15.84 1.8711 12.352 3.2383-3.2812c1.1172-1.1133 2.6484-1.7031 4.2227-1.625 1.5742 0.078125 3.0391 0.81641 4.0391 2.0352 1.8047 2.3164 1.5742 5.6211-0.53906 7.6602l-8.8906 8.9297 2.5508 16.859c0.23047 1.5625-0.28906 3.1406-1.4023 4.2617l-6.9414 6.9414 0.003907-0.003906c-0.51562 0.51562-1.2422 0.75-1.957 0.63281-0.71875-0.11719-1.332-0.57031-1.6562-1.2227l-16.777-33.809-12.75 11.461 2 18.34c0.14062 1.4805-0.38281 2.9453-1.4297 4l-4.8398 4.8398c-0.52344 0.51953-1.2695 0.75391-1.9961 0.62109-0.72656-0.12891-1.3398-0.60938-1.6445-1.2812l-9.8203-21.391-21.43-9.7695c-0.67188-0.30469-1.1523-0.92188-1.2852-1.6484-0.12891-0.72656 0.10156-1.4688 0.625-1.9922l4.8477-4.8398c1.0547-1.0469 2.5234-1.5703 4-1.4297l18 1.9219 11.602-12.922-33.77-16.77c-0.65234-0.32422-1.1055-0.9375-1.2227-1.6523-0.11719-0.71875 0.11719-1.4453 0.63281-1.957l6.9414-6.9414h-0.003906c1.1211-1.1133 2.6992-1.6328 4.2617-1.3984l16.859 2.5469 9.0508-9.0586c1.1133-1.1133 2.6484-1.7031 4.2227-1.625 1.5703 0.078125 3.0391 0.81641 4.0391 2.0352 1.8047 2.3164 1.5703 5.6211-0.54297 7.6602l-3.0703 3.0703 12.352 1.8594 16.102-18c2.457-2.7461 5.9609-4.3242 9.6445-4.3516 3.6875-0.03125 7.2109 1.4961 9.7148 4.2031z"/>
</svg>
