<svg width="1920" height="1080" viewBox="0 0 1920 1080" fill="none" xmlns="http://www.w3.org/2000/svg">
<g clip-path="url(#clip0_14_243)">
<rect width="1920" height="1080" fill="#5DCBEE"/>
<rect y="-25" width="1920" height="1105" fill="url(#paint0_linear_14_243)"/>
<g filter="url(#filter0_bf_14_243)">
<path d="M2319.69 520.18C1917.65 365.46 1592.31 391.413 1256.97 431.274C921.616 471.134 693.744 246.961 381.277 211.922C68.8109 176.883 6.4856 220.197 -143 257.569C-143 423.699 -128.83 1205.75 -128.83 1205.75L2746.86 1205.75L2746.86 399.836C2746.86 399.836 2722.47 675.183 2319.69 520.18Z" fill="url(#paint1_linear_14_243)"/>
</g>
<path d="M89.9378 491.161C21.3612 544.731 -86.0061 570.56 -86.0061 570.56V1124.46H250.642L1960.21 1172.41V503.421C1927.42 497.027 1854.09 476.086 1823.05 443.476C1784.26 402.713 1763.48 443.476 1748.24 443.476C1733 443.476 1713.61 400.315 1688.67 361.95C1663.74 323.584 1624.94 417.099 1597.24 443.476C1569.53 469.852 1480.86 465.056 1451.77 417.099C1422.68 369.143 1417.14 393.121 1389.43 417.099C1361.72 441.078 1309.9 421.588 1263.36 443.476C1135.9 503.421 1084.64 474.647 966.886 484.238C849.129 493.83 714.746 420.429 671.799 396.451C628.853 372.473 603.916 325.982 522.178 366.745C440.44 407.508 404.42 473.138 272.809 457.862C200.913 449.517 158.514 437.591 89.9378 491.161Z" fill="url(#paint2_linear_14_243)"/>
<path d="M1924.19 481.896C1992.9 428.167 2063.65 459.509 2090.43 481.896V1139.11H236.789C299.321 1058.69 448.753 805.017 584.52 777.823C659.331 762.838 667.643 617.46 742.454 577.84C860.212 515.476 903.159 551.456 959.96 481.896C1016.76 412.336 1051.4 448.315 1098.5 426.728C1145.6 405.14 1155.3 352.371 1177.47 309.196C1199.63 266.021 1213.49 290.007 1227.34 309.196C1241.19 328.385 1238.42 282.811 1250.89 309.196C1263.36 335.581 1370.03 417.133 1392.2 426.728C1414.37 436.322 1436.53 481.896 1479.48 448.315C1522.43 414.735 1500.26 438.721 1624.94 534.665C1749.63 630.61 1838.29 549.057 1924.19 481.896Z" fill="url(#paint3_linear_14_243)"/>
<path d="M1023.69 801.213C1151.14 789.559 1163.59 887.316 1235.65 892.785C1282.77 896.361 1330.9 831.148 1433.76 816.198C1583.26 794.469 1823.05 830.884 1823.05 830.884V1202.15H793.883L-352 1234.29V785.882C-330.023 781.596 -312.734 767.56 -291.933 745.702C-265.933 718.38 -252.004 745.702 -241.789 745.702C-231.575 745.702 -186.711 666.824 -169.996 641.109C-153.281 615.394 -127.281 678.075 -108.709 695.754C-90.1368 713.433 -43.1316 688.583 -11.2065 678.075C34.5223 663.023 90.7614 704.672 109.333 720.744C161.978 758.222 202.426 713.336 242.33 728.023C303.98 750.713 292.241 783.13 371.171 789.559C450.101 795.987 575.129 729.043 603.916 712.971C696.736 661.147 795.727 745.702 850.514 773.025C905.301 800.347 987.749 804.499 1023.69 801.213Z" fill="url(#paint4_linear_14_243)"/>
<path d="M2665.37 646.725C2734.08 592.996 2804.83 624.338 2831.61 646.725V1303.94H977.97C1107.27 1137.64 1406.05 1022.51 1500.26 972.621C1618.02 910.257 1656.81 855.707 1713.61 786.147C1770.41 716.588 1792.58 613.144 1839.68 591.557C1886.78 569.97 1896.48 517.2 1918.65 474.025C1940.81 430.85 1954.67 454.836 1968.52 474.025C1982.37 493.214 1979.6 447.64 1992.07 474.025C2004.54 500.41 2111.21 581.963 2133.38 591.557C2155.55 601.151 2177.71 646.725 2220.66 613.144C2263.61 579.564 2241.44 603.55 2366.13 699.494C2490.81 795.439 2579.47 713.886 2665.37 646.725Z" fill="url(#paint5_linear_14_243)"/>
<path d="M1683.82 986.772C1801.3 920.841 1927.65 959.301 1976.14 986.772V1320.59H-117.87C-138.651 1284.24 -167.744 1195.89 -117.87 1133.29C-55.5276 1055.04 83.0109 960.133 182.066 986.772C281.121 1013.41 272.809 986.772 329.609 1041.72C386.41 1096.66 493.778 1116.64 627.467 1041.72C761.157 966.793 950.262 963.463 1194.09 1041.72C1437.92 1119.97 1536.97 1069.19 1683.82 986.772Z" fill="url(#paint6_linear_14_243)"/>
<path d="M-562.578 733.136C-596.936 751.784 -717.28 806.394 -773.157 831.368V1322.53L822.807 1332.25C721.673 1270.38 786.787 1160.76 631.623 1087.5C524.394 1036.88 433.513 929.6 383.64 912.95C283.344 879.469 225.706 831.368 196.613 801.399C170.472 774.472 134.932 753.151 89.9379 743.126C12.6551 725.907 -43.3361 776.092 -105.401 801.399C-182.983 833.033 -194.066 858.007 -297.97 769.765C-401.874 681.523 -519.632 709.827 -562.578 733.136Z" fill="url(#paint7_linear_14_243)"/>
<circle cx="1296" cy="108" r="50" fill="url(#paint8_linear_14_243)"/>
</g>
<defs>
<filter id="filter0_bf_14_243" x="-426.394" y="-84.3938" width="3456.65" height="1573.53" filterUnits="userSpaceOnUse" color-interpolation-filters="sRGB">
<feFlood flood-opacity="0" result="BackgroundImageFix"/>
<feGaussianBlur in="BackgroundImage" stdDeviation="51.9047"/>
<feComposite in2="SourceAlpha" operator="in" result="effect1_backgroundBlur_14_243"/>
<feBlend mode="normal" in="SourceGraphic" in2="effect1_backgroundBlur_14_243" result="shape"/>
<feGaussianBlur stdDeviation="141.697" result="effect2_foregroundBlur_14_243"/>
</filter>
<linearGradient id="paint0_linear_14_243" x1="2880" y1="527.5" x2="1924.56" y2="-1132.63" gradientUnits="userSpaceOnUse">
<stop stop-color="#5AA68D"/>
<stop offset="1" stop-color="#2B9D7B"/>
</linearGradient>
<linearGradient id="paint1_linear_14_243" x1="1413.65" y1="159.325" x2="1413.65" y2="769.566" gradientUnits="userSpaceOnUse">
<stop stop-color="#78C5A5"/>
<stop offset="1" stop-color="#255549"/>
</linearGradient>
<linearGradient id="paint2_linear_14_243" x1="937.101" y1="349.933" x2="937.101" y2="1172.41" gradientUnits="userSpaceOnUse">
<stop stop-color="#2E7C5B"/>
<stop offset="1" stop-color="#88CCAF"/>
</linearGradient>
<linearGradient id="paint3_linear_14_243" x1="1163.61" y1="284.293" x2="1163.61" y2="1139.11" gradientUnits="userSpaceOnUse">
<stop offset="0.215075" stop-color="#307E5D"/>
<stop offset="1" stop-color="#49AC85"/>
</linearGradient>
<linearGradient id="paint4_linear_14_243" x1="735.527" y1="684.493" x2="735.527" y2="1234.29" gradientUnits="userSpaceOnUse">
<stop stop-color="#419261"/>
<stop offset="1" stop-color="#275B78"/>
</linearGradient>
<linearGradient id="paint5_linear_14_243" x1="1886.52" y1="449.829" x2="1886.52" y2="1303.94" gradientUnits="userSpaceOnUse">
<stop stop-color="#5BE0A8"/>
<stop offset="1" stop-color="#3A8269"/>
</linearGradient>
<linearGradient id="paint6_linear_14_243" x1="1262.18" y1="485.256" x2="1246.18" y2="1693.03" gradientUnits="userSpaceOnUse">
<stop offset="0.134655" stop-color="#3B927D"/>
<stop offset="0.665989" stop-color="#3B927D"/>
</linearGradient>
<linearGradient id="paint7_linear_14_243" x1="-15.3516" y1="709.56" x2="-15.3516" y2="1222.63" gradientUnits="userSpaceOnUse">
<stop stop-color="#58D6A1"/>
<stop offset="1" stop-color="#419E7C"/>
</linearGradient>
<linearGradient id="paint8_linear_14_243" x1="1295.01" y1="58" x2="1310" y2="251" gradientUnits="userSpaceOnUse">
<stop stop-color="#7DBEA0"/>
<stop offset="1" stop-color="#13BC75"/>
</linearGradient>
<clipPath id="clip0_14_243">
<rect width="1920" height="1080" fill="white"/>
</clipPath>
</defs>
</svg>
