<?xml version="1.0" encoding="UTF-8"?>
<svg width="100pt" height="100pt" version="1.1" viewBox="0 0 100 100" xmlns="http://www.w3.org/2000/svg">
 <path d="m6.0352 48.203c0-1.8672 1.4375-4.4531 3.0156-6.0352h-7.4727c-0.86328 0-1.582-0.71875-1.582-1.582v-4.3086c0-0.86328 0.71875-1.582 1.582-1.582h11.062c2.5859-10.344 7.1836-21.695 16.953-25.289h40.805c9.7695 3.5938 14.367 14.941 16.953 25.289h11.062c0.86328 0 1.582 0.71875 1.582 1.582v4.3086c0 0.86328-0.71875 1.582-1.582 1.582h-7.3281c1.582 1.582 2.875 4.168 2.875 6.0352v38.938c0 1.8672-1.582 3.4492-3.5938 3.4492h-13.938c-2.0117 0-3.5938-1.582-3.5938-3.4492v-7.9023c-15.086-1.582-30.602-1.582-45.691 0v7.9023c0 1.8672-1.582 3.4492-3.5938 3.4492h-13.938c-2.0117 0-3.5938-1.582-3.5938-3.4492v-38.938zm33.621 15.23h20.691c0.71875 0 1.293 0.57422 1.293 1.293v4.168c0 0.71875-0.57422 1.293-1.293 1.293h-20.691c-0.57422 0-1.1484-0.57422-1.1484-1.293v-4.168c0-0.71875 0.57422-1.293 1.1484-1.293zm-10.344-48.277c-9.0508 3.3047-11.496 18.965-7.9023 23.277 18.965 3.0156 38.219 3.0156 57.184 0 3.5938-4.3086 1.1484-19.973-7.9023-23.277-13.793-0.28906-27.586-0.28906-41.379 0zm55.602 36.207h-10.199c-1.0039 0-2.0117 1.0039-2.0117 2.0117v4.7422c0 1.1484 1.0039 2.0117 2.0117 2.0117h10.199c1.1484 0 2.0117-0.86328 2.0117-2.0117v-4.7422c0-1.0039-0.86328-2.0117-2.0117-2.0117zm-69.828 0h10.199c1.1484 0 2.0117 1.0039 2.0117 2.0117v4.7422c0 1.1484-0.86328 2.0117-2.0117 2.0117h-10.199c-1.0039 0-2.0117-0.86328-2.0117-2.0117v-4.7422c0-1.0039 1.0039-2.0117 2.0117-2.0117z" fill-rule="evenodd"/>
</svg>
