<svg xmlns="http://www.w3.org/2000/svg" version="1.1" xmlns:xlink="http://www.w3.org/1999/xlink" xmlns:svgjs="http://svgjs.com/svgjs" width="512" height="512" x="0" y="0" viewBox="0 0 512 512" style="enable-background:new 0 0 512 512" xml:space="preserve" class="">
    <g>
        <linearGradient id="a" x1="256" x2="256" y1="512" y2="0" gradientUnits="userSpaceOnUse">
            <stop offset="0" style="stop-color:#009EFD"></stop>
            <stop offset="1" style="stop-color:#2AF598"></stop>
        </linearGradient>
        <path d="M96 492V340h80v152m160 0V220h-80v272M20 0v492h472V340h-80v152m40-352c-22.091 0-40 17.909-40 40s17.909 40 40 40 40-17.909 40-40-17.909-40-40-40zM296 20c-22.091 0-40 17.909-40 40s17.909 40 40 40 40-17.909 40-40-17.909-40-40-40zM136 140c-22.091 0-40 17.909-40 40s17.909 40 40 40 40-17.909 40-40-17.909-40-40-40zm283.998 15.999-91.996-71.997m-64.004-.001-95.996 71.997" style="fill:none;stroke:url(#a);stroke-width:40;stroke-miterlimit:10;" fill="none" stroke-width="40" stroke-miterlimit="10"></path>
    </g>
</svg>