<svg xmlns="http://www.w3.org/2000/svg" version="1.1" xmlns:xlink="http://www.w3.org/1999/xlink" xmlns:svgjs="http://svgjs.com/svgjs" width="512" height="512" x="0" y="0" viewBox="0 0 64 64" style="enable-background:new 0 0 512 512" xml:space="preserve" class="">
    <g>
        <linearGradient id="a" x1="4" x2="60" y1="32" y2="32" gradientUnits="userSpaceOnUse">
            <stop stop-opacity="1" stop-color="#00c0ff" offset="0"></stop>
            <stop stop-opacity="1" stop-color="#4745d2" offset="1"></stop>
        </linearGradient>
        <path fill="url(#a)" d="M59.996 43.999a3.014 3.014 0 0 1-3 3.17H7.001a3.002 3.002 0 0 1-3-3c-.365-.465 56.014-.022 55.995-.17zM48.197 55.978h-7.329l-1.8-6.81h-2.08l1.81 6.81H25.2l1.81-6.81h-2.08l-1.8 6.81H15.8a1 1 0 0 0 0 2h32.397a1 1 0 0 0 0-2zm11.8-46.956V42H4.001V9.022a3.009 3.009 0 0 1 3-3h49.994a3.009 3.009 0 0 1 3 3zM19.41 25.001l3.96-3.96a.997.997 0 0 0-1.41-1.41l-4.67 4.66a1.025 1.025 0 0 0 0 1.42l4.67 4.66a.997.997 0 0 0 1.41-1.41zm13.969-7.32-4.66 13.999a1.003 1.003 0 0 0 1.9.64l4.66-13.999a1.003 1.003 0 0 0-1.9-.64zm13.329 6.61-4.67-4.66a.997.997 0 0 0-1.41 1.41l3.96 3.96-3.96 3.96a1.01 1.01 0 0 0 .7 1.71.992.992 0 0 0 .71-.3l4.67-4.66a1.025 1.025 0 0 0 0-1.42z" data-original="url(#a)" class=""></path>
    </g>
</svg>