<svg xmlns="http://www.w3.org/2000/svg" version="1.1" xmlns:xlink="http://www.w3.org/1999/xlink" xmlns:svgjs="http://svgjs.com/svgjs" width="512" height="512" x="0" y="0" viewBox="0 0 512 512" style="enable-background:new 0 0 512 512" xml:space="preserve" class="">
    <g>
        <linearGradient id="a" x1="256" x2="256" y1="512" y2="0" gradientUnits="userSpaceOnUse">
            <stop offset="0" stop-color="#c3ffe8"></stop>
            <stop offset=".997" stop-color="#f0fff4"></stop>
        </linearGradient>
        <linearGradient id="b" x1="256" x2="256" y1="452" y2="62" gradientUnits="userSpaceOnUse">
            <stop offset="0" stop-color="#00b59c"></stop>
            <stop offset="1" stop-color="#9cffac"></stop>
        </linearGradient>
        <path fill="url(#a)" d="M391 303.199 346 242l-40.429 40.429C317.891 193.475 331 81.955 331 77V15c0-8.291-6.709-15-15-15H46c-8.291 0-15 6.709-15 15v362c0 8.291 6.709 15 15 15h179.1l56.399 60c16.501 35.4 52.8 60 94.501 60 57.9 0 105-47.1 105-105 0-52.8-39.3-96.599-90-103.801z" data-original="url(#a)" class=""></path>
        <path fill="url(#b)" d="m416.605 396.395-29.982-29.982c-5.856-5.871-15.428-5.835-21.248 0l-29.982 29.982c-5.859 5.859-5.859 15.352 0 21.211s15.352 5.859 21.211 0l4.395-4.395V437c0 8.291 6.709 15 15 15s15-6.709 15-15v-23.789l4.395 4.395c5.859 5.859 15.351 5.859 21.211 0 5.86-5.86 5.86-15.352 0-21.211zM391 303.199V77c0-8.401-6.599-15-15-15l-270-.001c-8.285 0-15 6.716-15 15V437c0 8.284 6.716 15 15 15h175.499C274.6 438.5 271 423.199 271 407c0-18.41 4.762-35.728 13.119-50.787C302.044 323.91 336.51 302 376 302c5.1 0 10.201.3 15 1.199zM256 332h-90c-8.401 0-15-6.599-15-15s6.599-15 15-15h90c8.401 0 15 6.599 15 15s-6.599 15-15 15zm0-60h-90c-8.401 0-15-6.599-15-15s6.599-15 15-15h90c8.401 0 15 6.599 15 15s-6.599 15-15 15zm0-60h-90c-8.401 0-15-6.599-15-15s6.599-15 15-15h90c8.401 0 15 6.599 15 15s-6.599 15-15 15z" data-original="url(#b)"></path>
    </g>
</svg>