<svg xmlns="http://www.w3.org/2000/svg" version="1.1" xmlns:xlink="http://www.w3.org/1999/xlink" xmlns:svgjs="http://svgjs.com/svgjs" width="512" height="512" x="0" y="0" viewBox="0 0 64 64" style="enable-background:new 0 0 512 512" xml:space="preserve" class="">
    <g>
        <linearGradient id="a" x1="8.382" x2="55.618" y1="32" y2="32" gradientUnits="userSpaceOnUse">
            <stop stop-opacity="1" stop-color="#00c0ff" offset="0"></stop>
            <stop stop-opacity="1" stop-color="#4745d2" offset="1"></stop>
        </linearGradient>
        <path fill="url(#a)" d="M37.372 12.57V6.14a20.547 20.547 0 0 1 5.5 3.93 20.92 20.92 0 0 1 3.93 5.5h-6.43a3.009 3.009 0 0 1-3-3zM44.662 60a11.022 11.022 0 0 1-11-11c-.155-7.726 8.266-13.243 15.29-10.14 10.864 4.759 7.75 20.948-4.29 21.14zm4.41-14.5-6.6 4.86-2.08-2.19a1.008 1.008 0 0 0-1.42-.04.996.996 0 0 0-.03 1.41l2.69 2.84a1.014 1.014 0 0 0 1.32.12l7.31-5.39a1.001 1.001 0 0 0-1.19-1.61zM37.762 60h-24.38a5.002 5.002 0 0 1-5-5V9a5.002 5.002 0 0 1 5-5h14.82a20.389 20.389 0 0 1 7.17 1.29v7.28a5.008 5.008 0 0 0 5 5h7.28c2.039 4.539 1.108 14.26 1.3 19.15-8.235-3.001-17.442 3.487-17.29 12.28a12.965 12.965 0 0 0 6.1 11zm-11.1-35a1 1 0 0 0 0 2h17a1 1 0 0 0 0-2zm0-2h10a1 1 0 0 0 0-2h-10a1 1 0 0 0 0 2zm0 12h10a1 1 0 0 0 0-2h-10a1 1 0 0 0 0 2zm0 4h8.35a1 1 0 0 0 0-2h-8.35a1 1 0 0 0 0 2zm-4 6a2.006 2.006 0 0 0-2-2h-6a2.006 2.006 0 0 0-2 2v6a2.006 2.006 0 0 0 2 2h6a2.006 2.006 0 0 0 2-2zm0-12a2.006 2.006 0 0 0-2-2h-6a2.006 2.006 0 0 0-2 2v6a2.006 2.006 0 0 0 2 2h6a2.006 2.006 0 0 0 2-2zm0-12a2.006 2.006 0 0 0-2-2h-6a2.006 2.006 0 0 0-2 2v6a2.006 2.006 0 0 0 2 2h6a2.006 2.006 0 0 0 2-2zm7.04 28h-3.04a1 1 0 0 0 0 2h3.04a1 1 0 0 0 0-2zm.28-4h-3.32a1 1 0 0 0 0 2h3.32a1 1 0 0 0 0-2zm-15.32-18h6v-6h-6zm0 12h6v-6h-6zm0 12h6v-6h-6z" data-original="url(#a)" class=""></path>
    </g>
</svg>