

<svg xmlns="http://www.w3.org/2000/svg" version="1.1" xmlns:xlink="http://www.w3.org/1999/xlink" xmlns:svgjs="http://svgjs.com/svgjs" width="1920" height="1024" preserveAspectRatio="none" viewBox="0 0 1920 1024">
  <g mask="url(&quot;#SvgjsMask1018&quot;)" fill="none">
    <path stroke="rgb(227 234 242 / 70%)" stroke-width="2" d="M1536 191.19C1454.52 191.19 1365.33 221.58 1365.33 256C1365.33 291.09 1455.4 330.2 1536 330.2C1588.14 330.2 1630.81 291.57 1630.81 256C1630.81 222.07 1587.26 191.19 1536 191.19"></path>
    <path stroke="rgb(227 234 242 / 70%)" stroke-width="2" d="M256 473.04C235.85 473.04 215.27 487.55 215.27 512C215.27 566.76 236.03 631.47 256 631.47C275.88 631.47 294.96 567.07 294.96 512C294.96 487.85 275.7 473.04 256 473.04"></path>
    <path stroke="rgb(227 234 242 / 70%)" stroke-width="2" d="M768 482.13C748.6 482.13 729.04 497.96 729.04 512C729.04 525.17 748.58 536.55 768 536.55C787.12 536.55 806.13 525.16 806.13 512C806.13 497.95 787.14 482.13 768 482.13"></path>
    <path stroke="rgb(227 234 242 / 70%)" stroke-width="2" d="M1792 403.53C1737.74 403.53 1705.51 460.05 1705.51 512C1705.51 558.12 1740.35 599.67 1792 599.67C1883.59 599.67 1992 560.03 1992 512C1992 461.96 1880.99 403.53 1792 403.53"></path>
    <path stroke="rgb(227 234 242 / 70%)" stroke-width="2" d="M0 138.54C47.25 57.38 65.15 45.41 149.06 0C193.15 -23.86 202.53 0 256 0C370.16 0 375.05 -11.81 484.32 0C503.05 2.03 493.2 26.55 512 27.68C635.04 35.08 678.78 -39.53 768 17.07C858.72 74.63 871.88 144.53 871.88 256C871.88 323.73 826.32 322.52 768 375.47C685.34 450.52 589.91 447.82 589.91 512C589.91 572.2 684.49 560.81 768 624.22C853.05 688.81 913.28 680.18 927.03 768C944.57 880.07 895.29 919.83 830.58 1024C815.78 1047.83 799.29 1024 768 1024C640 1024 640 1024 512 1024C392 1024 272 1067.8 272 1024C272 966.74 396.26 927.04 512 821.89C537.16 799.04 553.8 797.44 553.8 768C553.8 723.95 533.61 721.13 512 674.91C473.76 593.13 487.54 583.2 434.09 512C359.54 412.7 346.03 333.91 256 333.91C163.9 333.91 165.33 425.79 69.82 512C37.33 541.32 21.76 564.97 0 564.97C-13.15 564.97 0 538.49 0 512C0 384 0 384 0 256C0 197.27 -27.28 185.38 0 138.54"></path>
    <path stroke="rgb(227 234 242 / 70%)" stroke-width="2" d="M1536 110.18C1473.57 61.44 1421.47 32.02 1421.47 0C1421.47 -23.07 1478.74 0 1536 0C1664 0 1664 0 1792 0C1827.1 0 1831.82 -15.19 1862.19 0C1959.82 48.81 1988.72 46.33 2048 128C2081.63 174.33 2048 192 2048 256C2048 347.43 2097.12 431.37 2048 438.86C1969.12 450.89 1916.76 371.43 1792 295.05C1767.42 280 1772.74 272.91 1749.33 256C1644.74 180.47 1637.5 189.44 1536 110.18"></path>
    <path stroke="rgb(227 234 242 / 70%)" stroke-width="2" d="M942.3 512C942.3 474.29 975.84 443.43 1024 443.43C1136.69 443.43 1264 471.58 1264 512C1264 553.86 1132.12 608 1024 608C971.27 608 942.3 556.57 942.3 512"></path>
    <path stroke="rgb(227 234 242 / 70%)" stroke-width="2" d="M1290.24 512C1406.03 460.15 1423.84 422.96 1536 422.96C1588.24 422.96 1576.69 468.27 1619.03 512C1704.69 600.46 1689.29 664.35 1792 687.34C1903.77 712.35 1967.85 582.75 2048 608C2095.85 623.08 2048 688 2048 768C2048 816 2082.9 851.84 2048 864C1954.9 896.44 1898.06 813.54 1792 857.21C1703.75 893.54 1740.44 971.18 1659.37 1024C1612.44 1054.58 1597.68 1024 1536 1024C1408 1024 1408 1024 1280 1024C1237.34 1024 1203.12 1055.94 1194.67 1024C1169.24 927.94 1190.2 893.63 1212.24 768C1232.87 650.43 1245.02 652.42 1280 537.6C1284.02 524.42 1278.03 517.47 1290.24 512"></path>
    <path stroke="rgb(227 234 242 / 70%)" stroke-width="2" d="M0 213.84C55.91 213.84 143.36 218.1 143.36 256C143.36 305.55 42.68 388.74 0 388.74C-29 388.74 0 322.37 0 256C0 234.92 -15.77 213.84 0 213.84"></path>
    <path stroke="rgb(227 234 242 / 70%)" stroke-width="2" d="M256 107.79C236.59 107.79 230.08 43.68 230.08 0C230.08 -10.21 243.04 0 256 0C283.67 0 311.35 -16.9 311.35 0C311.35 37 277.22 107.79 256 107.79"></path>
    <path stroke="rgb(227 234 242 / 70%)" stroke-width="2" d="M404.21 256C404.21 219.88 453.83 204.74 512 200.65C635.72 191.94 647.49 205.43 768 230.4C781.05 233.1 779.13 244.06 779.13 256C779.13 263.26 775.81 265.65 768 268.8C642.25 319.54 628.73 367.9 512 363.79C446.83 361.5 404.21 301.45 404.21 256"></path>
    <path stroke="rgb(227 234 242 / 70%)" stroke-width="2" d="M1536 29.16C1516.69 29.16 1505.68 8.47 1505.68 0C1505.68 -6.11 1520.84 0 1536 0C1603.76 0 1671.53 -7.21 1671.53 0C1671.53 7.37 1599.62 29.16 1536 29.16"></path>
    <path stroke="rgb(227 234 242 / 70%)" stroke-width="2" d="M1905.78 256C1905.78 222.62 1996.15 199.11 2048 199.11C2067.26 199.11 2048 227.56 2048 256C2048 296.63 2071.58 337.27 2048 337.27C2000.47 337.27 1905.78 291.7 1905.78 256"></path>
    <path stroke="rgb(227 234 242 / 70%)" stroke-width="2" d="M684.41 768C684.41 730.81 728.23 711.89 768 711.89C801.05 711.89 830.06 733.51 830.06 768C830.06 829.83 803.22 904.53 768 904.53C730.4 904.53 684.41 827.13 684.41 768"></path>
    <path stroke="rgb(227 234 242 / 70%)" stroke-width="2" d="M1443.84 768C1484.08 650.78 1469.12 537.6 1536 537.6C1619.92 537.6 1733.74 644.86 1745.45 768C1756.87 888.06 1673.14 912.93 1582.27 1024C1568.42 1040.93 1559.14 1024 1536 1024C1452.52 1024 1386.78 1073.28 1369.04 1024C1340.7 945.28 1400.6 893.98 1443.84 768"></path>
    <path stroke="rgb(227 234 242 / 70%)" stroke-width="2" d="M1865.14 768C1865.14 757.3 1968.1 741.33 2048 741.33C2059.53 741.33 2048 754.66 2048 768C2048 776 2055.33 784 2048 784C1963.9 784 1865.14 778.63 1865.14 768"></path>
    <path stroke="rgb(227 234 242 / 70%)" stroke-width="2" d="M472 1024C472 1014.46 490 990.32 512 990.32C543.69 990.32 579.37 1015.11 579.37 1024C579.37 1031.95 545.68 1024 512 1024C492 1024 472 1031.3 472 1024"></path>
  </g>
  <defs>
    <mask id="SvgjsMask1018">
      <rect width="1920" height="1024" fill="#ffffff"></rect>
    </mask>
  </defs>
</svg>