<svg xmlns="http://www.w3.org/2000/svg" version="1.1" xmlns:xlink="http://www.w3.org/1999/xlink" xmlns:svgjs="http://svgjs.com/svgjs" width="512" height="512" x="0" y="0" viewBox="0 0 64 64" style="enable-background:new 0 0 512 512" xml:space="preserve" class="">
    <g>
        <linearGradient id="a" x1="4" x2="60" y1="32" y2="32" gradientUnits="userSpaceOnUse">
            <stop offset="0" stop-color="#9cffac"></stop>
            <stop offset="1" stop-color="#00b59c"></stop>
        </linearGradient>
        <path fill="url(#a)" d="M60 13.86v1.81a3.009 3.009 0 0 1-3 3h-1.81a2.989 2.989 0 0 1-2.99-2.91H39.574c7.398 2.278 12.864 8.275 13.568 15.487a2.998 2.998 0 0 1 1.718 2.703v1.81a2.996 2.996 0 0 1-3 3h-1.81a3.002 3.002 0 0 1-3-3v-1.81a3.009 3.009 0 0 1 3-3h1.046c-1.059-7.974-8.76-14.185-18.086-14.185-9.428 0-17.205 6.344-18.129 14.443a2.99 2.99 0 0 1 1.799 2.742v1.81a2.996 2.996 0 0 1-3 3h-1.81a3.002 3.002 0 0 1-3-3v-1.81a3.012 3.012 0 0 1 2.95-3h1.079c.822-7.08 6.25-12.943 13.548-15.19H11.8a2.989 2.989 0 0 1-2.99 2.91H7a3.009 3.009 0 0 1-3-3v-1.81a3.002 3.002 0 0 1 3-3h1.81a2.98 2.98 0 0 1 2.99 2.9h40.4a2.98 2.98 0 0 1 2.99-2.9H57a3.002 3.002 0 0 1 3 3zM21.25 29.38a2.03 2.03 0 0 0 .08 2.82 16.834 16.834 0 0 1 4.18 6.09h12.98a16.834 16.834 0 0 1 4.18-6.09 2.03 2.03 0 0 0 .08-2.82l-9.27-10.04a1.483 1.483 0 0 0-.48-.35v7.28a3.01 3.01 0 1 1-2 0v-7.28a1.483 1.483 0 0 0-.48.35zM32 30.1a1.005 1.005 0 1 0-1.01-1 1.012 1.012 0 0 0 1.01 1zm4.93 10.19h-9.86a.993.993 0 0 0-.99.85l-1.45 9.69a1.994 1.994 0 0 0 1.99 2.31h10.76a1.994 1.994 0 0 0 1.99-2.31l-1.45-9.69a.993.993 0 0 0-.99-.85z" data-original="url(#a)" class=""></path>
    </g>
</svg>