<svg xmlns="http://www.w3.org/2000/svg" version="1.1" xmlns:xlink="http://www.w3.org/1999/xlink" xmlns:svgjs="http://svgjs.com/svgjs" width="512" height="512" x="0" y="0" viewBox="0 0 512 512" style="enable-background:new 0 0 512 512" xml:space="preserve" class="">
    <g>
        <linearGradient id="a" x1="507.313" x2="4.686" y1="4.686" y2="507.313" gradientUnits="userSpaceOnUse">
            <stop offset="0" stop-color="#e93528"></stop>
            <stop offset="1" stop-color="#f8bc16"></stop>
        </linearGradient>
        <path fill="url(#a)" d="m297.012 273.875-47.247 47.247-58.887-58.887 47.247-47.248c6.249-6.248 6.249-16.379 0-22.627-6.248-6.249-16.379-6.249-22.627 0l-47.248 47.248-21.479-21.479c-6.248-6.248-16.379-6.249-22.627 0L70.27 272.003C27.312 314.96 23.797 382.647 59.713 429.659L4.687 484.687c-6.249 6.248-6.249 16.379 0 22.627C7.811 510.438 11.905 512 16 512s8.189-1.563 11.313-4.687l55.026-55.027c21.408 16.354 47.099 24.538 72.794 24.538 30.733 0 61.466-11.698 84.863-35.095l53.875-53.874a15.997 15.997 0 0 0 0-22.626l-21.479-21.479 47.247-47.247c6.249-6.248 6.249-16.379 0-22.627-6.248-6.249-16.379-6.249-22.627-.001zM217.37 419.103c-34.317 34.316-90.154 34.316-124.472 0l-3.279 3.279 3.279-3.279c-34.317-34.317-34.317-90.154 0-124.472l42.561-42.561L259.93 376.542zM507.313 4.687c-6.248-6.249-16.379-6.249-22.627 0L429.66 59.713c-47.013-35.916-114.7-32.4-157.657 10.557l-53.874 53.875c-6.249 6.248-6.249 16.379 0 22.627l147.099 147.1a15.997 15.997 0 0 0 22.626 0l53.875-53.875c42.958-42.958 46.473-110.644 10.557-157.656l55.027-55.027c6.249-6.249 6.249-16.379 0-22.627zm-88.21 212.683-42.561 42.561-124.473-124.473 42.561-42.561c34.318-34.316 90.156-34.316 124.473 0 34.316 34.317 34.316 90.155 0 124.473z" data-original="url(#a)" class=""></path>
    </g>
</svg>