<svg xmlns="http://www.w3.org/2000/svg" version="1.1" xmlns:xlink="http://www.w3.org/1999/xlink" xmlns:svgjs="http://svgjs.com/svgjs" width="512" height="512" x="0" y="0" viewBox="0 0 48 48" style="enable-background:new 0 0 512 512" xml:space="preserve" class="">
    <g>
        <linearGradient id="a" x1="0" x2="1" y1="0" y2="0" gradientTransform="matrix(37 -28 28 37 412 583)" gradientUnits="userSpaceOnUse">
            <stop offset="0" stop-color="#0056e0"></stop>
            <stop offset=".01" stop-color="#0056e0"></stop>
            <stop offset="1" stop-color="#00e5b8"></stop>
        </linearGradient>
        <path fill="url(#a)" d="M452.5 555a3.503 3.503 0 0 0-3.5-3.5h-34a3.503 3.503 0 0 0-3.5 3.5v26a3.503 3.503 0 0 0 3.5 3.5h34a3.503 3.503 0 0 0 3.5-3.5zm-3 5.5h-35V555c0-.133.053-.26.146-.354a.504.504 0 0 1 .354-.146h34c.133 0 .26.053.354.146a.504.504 0 0 1 .146.354zm-15.5-2.999a1.5 1.5 0 1 1 3.001.001 1.5 1.5 0 0 1-3.001-.001zm5 0a1.5 1.5 0 1 1 3.001.001 1.5 1.5 0 0 1-3.001-.001zm5 0a1.5 1.5 0 1 1 3.001.001 1.5 1.5 0 0 1-3.001-.001z" transform="translate(-408 -544)" data-original="url(#a)" class=""></path>
    </g>
</svg>