<?xml version="1.0" encoding="utf-8"?>
<!-- Generator: Adobe Illustrator 24.3.0, SVG Export Plug-In . SVG Version: 6.00 Build 0)  -->
<svg version="1.1" id="Layer_1" xmlns="http://www.w3.org/2000/svg" xmlns:xlink="http://www.w3.org/1999/xlink" x="0px" y="0px"
	 viewBox="0 0 492.28 188.18" style="enable-background:new 0 0 492.28 188.18;" xml:space="preserve">
<style type="text/css">
	.st0{fill:#FFC107;}
	.st1{font-family:'Poppins-ExtraBold';}
	.st2{font-size:139.3208px;}
	.st3{letter-spacing:26.95;}
	.st4{fill:#C0C6CE;}
	.st5{font-family:'Poppins-Medium';}
	.st6{font-size:60px;}
	.st7{letter-spacing:11.98;}
	.st8{fill:#7C430F;}
</style>
<g>
	<text transform="matrix(1.0019 0 0 1 0 102.2588)"><tspan x="0" y="0" class="st0 st1 st2">Your</tspan><tspan x="345.09" y="0" class="st1 st2 st3">  </tspan><tspan x="0" y="72" class="st4 st5 st6 st7">B r e e d e r</tspan></text>
	<g>
		<path class="st8" d="M492.26,12.41c-0.03,1.74-0.1,3.48-0.49,5.19c-0.32,1.4-0.6,2.82-0.99,4.21c-0.72,2.52-1.74,4.93-2.89,7.28
			c-1.8,3.7-4.01,7.16-6.51,10.42c-3.16,4.14-6.68,7.96-10.55,11.45c-1.53,1.38-3.09,2.72-4.64,4.07c-0.35,0.3-0.45,0.61-0.37,1.08
			c0.25,1.39,0.45,2.79,0.64,4.2c0.1,0.77,0.15,1.54,0.2,2.31c0.08,1.31-0.43,2.51-0.68,3.76c-0.12,0.6-0.18,1.21-0.33,1.79
			c-0.38,1.47-0.17,2.98-0.34,4.45c-0.12,1.09-0.29,2.19-0.56,3.26c-0.51,2.02-1.02,4.04-1.67,6.01c-0.8,2.42-1.91,4.72-3.19,6.93
			c-0.15,0.25-0.24,0.61-0.18,0.89c0.38,1.93,0.18,3.83-0.2,5.72c-0.26,1.33-0.47,2.68-0.85,3.99c-1.03,3.58-2.65,6.86-5.21,9.61
			c-1.68,1.8-3.7,3.11-6.08,3.78c-1.44,0.41-2.93,0.58-4.45,0.52c-1.3-0.05-2.59-0.06-3.84-0.39c-1.01-0.27-2.04-0.55-2.97-1.02
			c-0.92-0.46-1.75-0.47-2.67-0.15c-2.76,0.97-5.59,1.53-8.51,1.78c-1.79,0.15-3.58,0.17-5.36,0.05c-1.3-0.09-2.59-0.36-3.87-0.59
			c-1.78-0.32-3.49-0.89-5.15-1.6c-0.53-0.22-1.03-0.01-1.5,0.2c-1.49,0.67-3.03,1.17-4.66,1.35c-1.1,0.12-2.22,0.29-3.3,0.18
			c-1.35-0.14-2.7-0.42-3.99-0.85c-2.58-0.87-4.81-2.34-6.77-4.25c-1.87-1.82-3.42-3.86-4.61-6.16c-0.72-1.39-1.33-2.83-1.87-4.3
			c-0.66-1.78-1.23-3.6-1.76-5.43c-0.46-1.55-0.8-3.14-1.23-4.71c-0.12-0.45-0.34-0.89-0.55-1.32c-0.61-1.28-1.27-2.53-1.84-3.83
			c-0.53-1.21-0.99-2.45-1.42-3.7c-0.56-1.64-1.09-3.28-1.56-4.95c-0.81-2.87-1.35-5.78-1.43-8.77c-0.02-0.86-0.11-1.72-0.07-2.57
			c0.1-2.08,0.27-4.16,0.96-6.15c0.12-0.33,0.06-0.6-0.19-0.85c-1.84-1.83-3.68-3.65-5.49-5.5c-2.46-2.5-4.98-4.94-7.15-7.71
			c-1.81-2.32-3.55-4.71-5.21-7.13c-0.95-1.39-1.72-2.9-2.55-4.37c-0.49-0.86-0.96-1.74-1.41-2.62c-0.24-0.47-0.41-0.97-0.62-1.46
			c-0.25-0.56-0.5-1.11-0.76-1.67c-0.26-0.57-0.57-1.12-0.8-1.7c-0.26-0.66-0.45-1.34-0.7-2c-0.57-1.52-0.93-3.1-1.22-4.7
			c-0.29-1.61-0.46-3.23-0.24-4.87c0.15-1.08,0.26-2.16,0.68-3.18c0.45-1.09,1.17-1.96,2.1-2.66c1.57-1.19,3.35-1.81,5.33-1.78
			c0.2,0,0.42,0.02,0.61-0.03c0.83-0.21,1.66-0.03,2.48,0.07c3.72,0.41,7.24,1.57,10.71,2.9c3.22,1.23,6.33,2.7,9.37,4.31
			c3.68,1.96,7.33,4,10.95,6.07c2.05,1.17,4.01,2.49,6.03,3.71c0.24,0.14,0.56,0.21,0.84,0.21c1.98-0.06,3.95-0.19,5.93-0.2
			c1.46-0.01,2.91,0.13,4.37,0.2c1.12,0.06,2.24,0.09,3.35,0.18c1.06,0.09,2.11,0.24,3.16,0.35c0.74,0.08,1.5,0.09,2.23,0.23
			c1.44,0.27,2.85-0.16,4.28-0.14c0.71,0.01,1.42-0.06,2.13-0.11c0.78-0.06,1.57-0.15,2.35-0.22c0.75-0.06,1.49-0.11,2.24-0.18
			c1.25-0.12,2.5-0.27,3.75-0.37c0.77-0.06,1.55-0.07,2.33-0.06c1.66,0.01,3.33,0.03,4.99,0.09c1.17,0.04,2.34,0.17,3.51,0.2
			c0.81,0.03,1.54-0.28,2.23-0.7c1.84-1.12,3.69-2.22,5.55-3.3c2.21-1.28,4.42-2.54,6.66-3.77c2.27-1.24,4.57-2.43,6.86-3.63
			c1.15-0.6,2.3-1.2,3.47-1.76c0.95-0.45,1.91-0.87,2.89-1.25c1.68-0.64,3.36-1.32,5.08-1.83c2.06-0.62,4.15-1.2,6.33-1.21
			c0.04,0,0.08,0,0.12-0.01c1.41-0.29,2.8,0.04,4.18,0.24c1.04,0.16,2.02,0.56,2.88,1.21c0.79,0.6,1.65,1.14,2.15,2.04
			c0.44,0.81,0.83,1.65,1.21,2.49C492.34,10.58,492.29,11.5,492.26,12.41z M443.28,78.45c-0.02,0.06-0.04,0.12-0.06,0.18
			c0.11,0.16,0.21,0.33,0.34,0.47c0.62,0.69,1.23,1.39,1.86,2.07c1.22,1.3,2.61,2.31,4.34,2.88c1.93,0.64,3.81,1.4,5.71,2.14
			c0.51,0.2,0.66,0.21,0.92-0.29c0.54-1.07,1.11-2.13,1.58-3.23c1.06-2.5,1.96-5.06,2.4-7.75c0.15-0.9,0.36-1.79,0.44-2.7
			c0.11-1.22,0.11-2.45,0.18-3.67c0.03-0.47,0.06-0.96,0.17-1.42c0.26-1.11,0.58-2.21,0.84-3.33c0.12-0.5,0.25-1.03,0.2-1.53
			c-0.16-1.56-0.39-3.11-0.63-4.66c-0.04-0.25-0.16-0.56-0.34-0.72c-0.6-0.52-0.8-1.2-0.99-1.93c-0.56-2.23-1.1-4.47-1.75-6.68
			c-0.42-1.42-0.98-2.8-1.55-4.17c-0.92-2.22-1.99-4.36-3.71-6.11c-0.26-0.26-0.49-0.55-0.72-0.83c-0.71-0.88-0.76-1.85-0.15-2.8
			c0.26-0.4,0.53-0.8,0.79-1.2c2.54-3.91,5.24-7.71,8.2-11.32c1.46-1.78,2.96-3.54,4.56-5.19c2.07-2.13,4.22-4.19,6.73-5.82
			c0.09-0.06,0.14-0.16,0.21-0.23c-0.02-0.03-0.04-0.07-0.06-0.1c-0.14,0.04-0.28,0.05-0.41,0.11c-0.62,0.26-1.24,0.51-1.84,0.79
			c-1.63,0.76-3.26,1.52-4.87,2.32c-1.45,0.72-2.88,1.5-4.31,2.26c-1.31,0.7-2.62,1.4-3.91,2.13c-1.91,1.08-3.81,2.18-5.7,3.29
			c-1.6,0.93-3.22,1.84-4.78,2.85c-1.44,0.94-2.97,1.49-4.69,1.43c-1.25-0.04-2.5-0.16-3.76-0.23c-0.8-0.05-1.61-0.13-2.41-0.13
			c-1.09-0.01-2.19,0.01-3.27,0.09c-1.93,0.14-3.86,0.32-5.79,0.49c-0.98,0.09-1.95,0.22-2.93,0.28c-1.88,0.12-3.76,0.18-5.64,0.3
			c-1.08,0.07-1.05,0.09-0.96,1.16c0.24,2.82,0.49,5.65,0.66,8.47c0.11,1.78,0.12,3.57,0.09,5.35c-0.03,2.04-0.18,4.08-0.21,6.12
			c-0.03,1.91-0.25,3.8-0.48,5.69c-0.13,1.08-0.31,2.16-0.55,3.22c-0.38,1.7-0.74,3.4-1.25,5.06c-0.42,1.36-1.04,2.66-1.56,3.99
			c-0.07,0.19-0.06,0.41-0.08,0.61c0.21-0.01,0.42,0.02,0.62-0.03c1.53-0.39,3.1-0.54,4.67-0.57c1.65-0.02,3.3-0.04,4.93,0.32
			c1.37,0.3,2.77,0.48,4.11,0.89c1.39,0.43,2.73,1.03,4.04,1.66c1.64,0.79,3.16,1.78,4.47,3.06c0.73,0.71,1.4,1.49,2.11,2.22
			c0.2,0.2,0.41,0.39,0.62,0.58c0.05-0.02,0.1-0.04,0.15-0.07c-0.73-2.44-0.35-4.68,1.16-6.69c1.55-2.06,3.69-3.01,6.21-2.86
			c3.9,0.23,6.96,3.25,6.96,7.41c0,1.86-0.64,3.54-1.94,4.86C449.67,79.57,446.64,80.03,443.28,78.45z M421.22,74.9
			c0.74,0,1.42-0.02,2.1,0.01c0.69,0.03,1.39,0.06,2.07,0.19c2.8,0.53,4.23,2,5.04,4.49c0.38,1.16,0.39,2.35,0.29,3.56
			c-0.03,0.43-0.23,0.66-0.61,0.82c-0.43,0.18-0.86,0.36-1.24,0.62c-1.19,0.85-2.36,1.72-3.51,2.62c-0.58,0.45-1.16,0.9-1.44,1.64
			c-0.32,0.87-0.72,1.71-1.02,2.58c-0.2,0.59-0.17,1.19,0.21,1.76c0.34,0.49,0.63,1.02,0.9,1.55c0.6,1.17,1.11,2.38,1.86,3.48
			c1.55,2.28,3.41,4.26,5.64,5.86c2.79,1.99,5.9,3.36,9.17,4.34c1.06,0.32,2.15,0.49,3.3,0.22c2.19-0.52,3.85-1.81,5.19-3.5
			c1.21-1.53,2.31-3.17,3.21-4.92c0.83-1.61,1.38-3.3,1.71-5.05c0.24-1.32,0.29-2.67,0.42-4.01c0.03-0.36-0.14-0.58-0.48-0.71
			c-1.99-0.75-3.95-1.59-5.96-2.26c-2.4-0.81-4.4-2.19-6.05-4.05c-2.02-2.29-3.96-4.65-5.92-6.99c-1.03-1.24-2.08-2.45-3.42-3.38
			c-1.23-0.86-2.54-1.52-3.91-2.11c-1.77-0.77-3.66-1.03-5.53-1.38c-0.71-0.13-1.46-0.12-2.19-0.11c-1.35,0.03-2.7,0.04-4.04,0.19
			c-1.52,0.17-2.97,0.64-4.38,1.25c-2.1,0.91-3.87,2.18-5.22,4.06c-1.42,1.98-2.91,3.92-4.43,5.83c-1.56,1.97-3.26,3.81-5.41,5.18
			c-1.22,0.77-2.49,1.23-3.96,0.88c-0.44-0.1-0.88-0.17-1.32-0.28c-1.35-0.31-2.72-0.23-4.08-0.18c-0.56,0.02-1.13,0.18-1.68,0.34
			c-0.45,0.13-0.62,0.44-0.52,0.79c0.51,1.68,0.64,3.46,1.33,5.09c0.67,1.61,1.23,3.27,2.02,4.81c0.74,1.45,1.66,2.81,2.59,4.15
			c1.9,2.75,4.3,4.88,7.62,5.8c1.05,0.29,2.12,0.49,3.19,0.33c1.21-0.18,2.4-0.52,3.6-0.78c0.97-0.21,1.88-0.56,2.71-1.11
			c1.74-1.16,3.32-2.51,4.72-4.08c1.5-1.69,2.85-3.48,3.99-5.43c0.66-1.13,1.2-2.33,1.91-3.42c0.57-0.88,0.44-1.74,0.18-2.61
			c-0.17-0.57-0.45-1.12-0.74-1.63c-0.23-0.41-0.52-0.8-0.87-1.11c-0.79-0.71-1.62-1.38-2.47-2.02c-1.17-0.87-2.29-1.81-3.66-2.38
			c-0.18-0.07-0.34-0.35-0.38-0.57c-0.21-1.04-0.13-2.08,0.1-3.11c0.62-2.83,2.28-4.43,4.99-5.06
			C418.31,74.75,419.79,74.97,421.22,74.9z M353.63,13.56c0.09,0.72,0.17,1.8,0.37,2.85c0.3,1.56,0.65,3.11,1.13,4.64
			c0.64,2.05,1.46,4.02,2.52,5.87c1.19,2.08,2.49,4.1,3.83,6.09c1.94,2.9,4.12,5.63,6.4,8.28c2.13,2.47,4.21,4.98,6.64,7.17
			c0.8,0.72,1.59,1.45,2.4,2.17c0.37,0.33,0.62,0.27,0.72-0.15c0.53-2.07,1.19-4.1,1.91-6.12c1.1-3.06,2.51-5.95,4.5-8.53
			c0.26-0.34,0.22-0.64-0.01-0.97c-1.46-2.04-2.88-4.1-4.38-6.12c-1.35-1.82-2.72-3.61-4.16-5.36c-2.4-2.92-5.03-5.64-8.02-7.97
			c-1.37-1.07-2.86-1.97-4.57-2.39c-1.57-0.39-3.15-0.77-4.73-1.13c-0.49-0.11-0.99-0.2-1.49-0.2c-0.6,0-1.2,0.09-1.79,0.15
			C353.8,11.93,353.62,12.12,353.63,13.56z M485.54,11.57c0-0.02-0.01-0.04-0.01-0.06c-0.76,0.13-1.53,0.24-2.29,0.41
			c-1.21,0.26-2.42,0.57-3.63,0.85c-1.38,0.31-2.74,0.72-3.92,1.5c-1.2,0.8-2.38,1.64-3.46,2.6c-2.71,2.38-5.14,5.04-7.4,7.84
			c-2.65,3.28-5.14,6.67-7.44,10.2c-0.26,0.4-0.24,0.66,0.05,1.04c0.25,0.32,0.51,0.64,0.73,0.98c0.93,1.49,1.9,2.96,2.53,4.61
			c0.48,1.26,1.06,2.48,1.5,3.75c0.54,1.58,0.98,3.2,1.47,4.8c0.14,0.47,0.33,0.53,0.69,0.21c1.13-1.01,2.26-2.01,3.37-3.04
			c3.06-2.85,5.92-5.88,8.53-9.15c2.45-3.07,4.64-6.3,6.46-9.77c1.07-2.03,2.04-4.1,2.74-6.28c0.47-1.46,0.84-2.96,1.21-4.44
			c0.15-0.59,0.22-1.21,0.29-1.81c0.13-1.16,0.24-2.32,0.34-3.48c0.03-0.39-0.2-0.64-0.56-0.67
			C486.33,11.61,485.94,11.6,485.54,11.57z M387.98,74.14c-0.02-0.22,0-0.36-0.04-0.48c-0.48-1.78-0.32-3.47,0.68-5.07
			c0.73-1.16,1.73-2.02,3-2.48c1.37-0.5,2.78-0.55,4.21-0.09c2.21,0.72,3.94,2.9,4.19,5.1c0.16,1.33-0.11,2.6-0.8,3.77
			c-0.11,0.19-0.18,0.4-0.29,0.67c1.13-0.44,2.9-3.33,2.4-6.43c-0.24-1.49-0.87-2.8-1.93-3.89c-1.38-1.41-3.06-2.22-5.04-2.3
			c-2.68-0.12-6.12,1.36-7.37,5.4C386.4,70.24,386.9,73.23,387.98,74.14z M422.06,109.14c0,0.04,0.01,0.08,0.01,0.13
			c0.91-0.08,1.81-0.16,2.72-0.23c1.39-0.1,2.77-0.27,4.11-0.65c0.14-0.04,0.25-0.18,0.37-0.27c-0.09-0.11-0.15-0.26-0.26-0.34
			c-1.4-0.96-2.67-2.07-3.84-3.3c-0.24-0.25-0.5-0.34-0.81-0.2c-0.94,0.45-1.93,0.63-2.96,0.73c-0.86,0.08-1.67-0.09-2.45-0.35
			c-0.83-0.28-0.81-0.34-1.4,0.33c-0.05,0.06-0.11,0.12-0.17,0.18c-0.83,0.84-1.66,1.69-2.49,2.53c-0.3,0.3-0.27,0.43,0.14,0.55
			c0.39,0.11,0.79,0.23,1.19,0.29c1.32,0.21,2.63,0.43,3.95,0.58C420.8,109.2,421.44,109.14,422.06,109.14z M379.94,71.95
			c-0.06,0.02-0.12,0.04-0.17,0.06c0.03,0.25,0.03,0.52,0.11,0.76c0.45,1.43,0.92,2.85,1.39,4.27c0.18,0.54,0.38,1.08,0.61,1.6
			c0.63,1.48,1.27,2.95,1.93,4.41c0.2,0.44,0.38,0.47,0.83,0.32c0.7-0.22,1.41-0.42,2.11-0.64c0.14-0.05,0.35-0.14,0.37-0.25
			c0.03-0.11-0.12-0.28-0.22-0.39c-0.76-0.77-1.61-1.48-2.3-2.32c-1.81-2.2-3.32-4.59-4.32-7.28
			C380.21,72.31,380.06,72.14,379.94,71.95z"/>
		<path class="st8" d="M427.53,90.37c0,0.46-0.39,0.85-0.85,0.86c-0.45,0-0.91-0.46-0.91-0.92c0-0.51,0.43-0.94,0.93-0.93
			C427.14,89.38,427.53,89.86,427.53,90.37z"/>
		<path class="st8" d="M427.19,95.59c-0.01-0.49,0.36-0.9,0.81-0.91c0.46-0.01,0.93,0.46,0.95,0.95c0.01,0.48-0.4,0.92-0.85,0.92
			C427.56,96.54,427.2,96.16,427.19,95.59z"/>
		<path class="st8" d="M410.85,96.75c0,0.48-0.4,0.9-0.86,0.91c-0.47,0.01-0.89-0.46-0.89-0.98c0-0.47,0.37-0.84,0.87-0.85
			C410.43,95.81,410.84,96.24,410.85,96.75z"/>
		<path class="st8" d="M431.86,87.98c0.01,0.44-0.37,0.87-0.79,0.89c-0.48,0.02-0.97-0.47-0.97-0.96c0-0.44,0.46-0.93,0.87-0.93
			C431.42,86.97,431.85,87.46,431.86,87.98z"/>
		<path class="st8" d="M437.61,91.49c-0.01,0.46-0.38,0.86-0.82,0.86c-0.47,0-0.95-0.47-0.95-0.95c0-0.48,0.44-0.91,0.93-0.9
			C437.22,90.5,437.61,90.97,437.61,91.49z"/>
		<path class="st8" d="M438.11,93.86c0.47,0.01,0.91,0.46,0.9,0.94c0,0.51-0.38,0.93-0.84,0.93c-0.44,0-0.92-0.49-0.92-0.94
			C437.25,94.3,437.66,93.85,438.11,93.86z"/>
		<path class="st8" d="M406.76,95.11c0,0.49-0.36,0.87-0.83,0.87c-0.46,0-0.92-0.45-0.92-0.91c0-0.47,0.44-0.95,0.88-0.96
			C406.33,94.1,406.75,94.58,406.76,95.11z"/>
		<path class="st8" d="M415.31,96.2c-0.01,0.5-0.41,0.93-0.85,0.91c-0.46-0.01-0.92-0.52-0.9-0.99c0.01-0.44,0.45-0.89,0.85-0.89
			C414.91,95.24,415.32,95.68,415.31,96.2z"/>
		<path class="st8" d="M415.54,90.63c0.45,0.01,0.95,0.49,0.94,0.92c-0.01,0.5-0.44,0.95-0.9,0.95c-0.44,0-0.88-0.52-0.87-1.02
			C414.73,91.02,415.12,90.62,415.54,90.63z"/>
		<path class="st8" d="M404.09,92.65c-0.42-0.01-0.89-0.52-0.88-0.96c0.01-0.48,0.42-0.93,0.85-0.93c0.45,0,0.9,0.46,0.9,0.93
			C404.96,92.17,404.52,92.66,404.09,92.65z"/>
		<path class="st8" d="M409.55,89.36c0.01,0.49-0.36,0.88-0.82,0.88c-0.47,0-0.91-0.47-0.92-0.97c-0.01-0.44,0.44-0.87,0.9-0.87
			C409.18,88.39,409.54,88.81,409.55,89.36z"/>
		<path class="st8" d="M434.41,96.21c-0.01,0.44-0.45,0.91-0.84,0.91c-0.47,0-0.94-0.49-0.92-0.97c0.02-0.5,0.42-0.92,0.87-0.91
			C433.92,95.24,434.42,95.78,434.41,96.21z"/>
		<path class="st8" d="M434.21,89.12c-0.43,0-0.87-0.47-0.88-0.91c-0.01-0.49,0.43-0.93,0.9-0.92c0.47,0.01,0.88,0.48,0.87,1
			C435.09,88.74,434.68,89.12,434.21,89.12z"/>
		<path class="st8" d="M410.69,91.2c0.47,0.01,0.83,0.41,0.83,0.92c0,0.55-0.35,0.9-0.89,0.9c-0.43,0-0.86-0.47-0.86-0.92
			C409.78,91.61,410.21,91.2,410.69,91.2z"/>
		<path class="st8" d="M430.79,91.36c0.44,0.03,0.83,0.53,0.79,1.02c-0.03,0.48-0.47,0.85-0.95,0.81c-0.4-0.03-0.84-0.54-0.81-0.93
			C429.85,91.7,430.26,91.33,430.79,91.36z"/>
		<path class="st8" d="M411.94,87.85c0.45,0,0.88,0.45,0.87,0.91c0,0.51-0.41,0.94-0.89,0.94c-0.44-0.01-0.86-0.46-0.86-0.93
			C411.07,88.21,411.42,87.84,411.94,87.85z"/>
	</g>
</g>
</svg>
